<?xml version="1.0" encoding="UTF-8"?><svg id="Capa_1" xmlns="http://www.w3.org/2000/svg" viewBox="0 0 430 322.5"><defs><style>.cls-1{fill:#fff;}</style></defs><path class="cls-1" d="M389.69,0H40.31C18.05,0,0,18.05,0,40.31v241.88c0,22.26,18.05,40.31,40.31,40.31H389.69c22.26,0,40.31-18.05,40.31-40.31V40.31c0-22.26-18.05-40.31-40.31-40.31Zm0,282.19H40.31V126.31c19.24,15.33,46.53,36.84,88.13,69.41,18.36,14.45,50.5,46.35,86.56,46.15,35.88,.19,67.61-31.24,86.55-46.15,41.6-32.57,68.89-54.09,88.14-69.42v155.88Zm0-207.61c-18.83,15.33-48.85,39.18-113.03,89.43-14.14,11.13-42.16,37.85-61.66,37.54-19.49,.31-47.52-26.42-61.66-37.54C89.17,113.77,59.15,89.92,40.31,74.58V40.31H389.69v34.27Z"/></svg>