<?xml version="1.0" encoding="UTF-8"?><svg id="Capa_1" xmlns="http://www.w3.org/2000/svg" xmlns:xlink="http://www.w3.org/1999/xlink" viewBox="0 0 189.51 127.4"><defs><style>.cls-1{fill:none;}.cls-2{clip-path:url(#clippath);}.cls-3{fill:#f5f7fa;}.cls-4{fill:#ed5565;}.cls-5{fill:#fff;}.cls-6{fill:#4758a9;}</style><clipPath id="clippath"><circle class="cls-1" cx="94.75" cy="65.53" r="61.86"/></clipPath></defs><g class="cls-2"><g><rect id="rect1784" class="cls-4" width="189.51" height="127.24"/><path class="cls-3" d="M189.51,116.37H0v-8.1H189.51v8.1Zm0-19.58H0v-8.1H189.51v8.1Zm0-19.58H0v-8.1H189.51v8.1Zm0-19.58H0v-8.1H189.51v8.1Zm0-19.58H0v-8.1H189.51v8.1Zm0-19.58H0V10.39H189.51v8.1Z"/><rect id="rect1788" class="cls-6" width="96.7" height="69.08"/><g id="g1813"><g id="s18"><g id="s9"><g id="s5"><g id="s4-5"><path id="s-8" class="cls-5" d="M8.06,2.94l2.3,7.08L4.34,5.64h7.45l-6.02,4.38,2.3-7.08Z"/><g id="use1791"><path id="s-8-2" class="cls-5" d="M8.06,16.64l2.3,7.08-6.02-4.38h7.45l-6.02,4.38,2.3-7.08Z"/></g><g id="use1793"><path id="s-8-3" class="cls-5" d="M8.06,30.34l2.3,7.08-6.02-4.38h7.45l-6.02,4.38,2.3-7.08Z"/></g><g id="use1795"><path id="s-8-4" class="cls-5" d="M8.06,44.05l2.3,7.08-6.02-4.38h7.45l-6.02,4.38,2.3-7.08Z"/></g></g><g id="use1798"><path id="s-8-5" class="cls-5" d="M8.06,57.75l2.3,7.08-6.02-4.38h7.45l-6.02,4.38,2.3-7.08Z"/></g></g><g id="use1801"><g id="s4-5-2"><path id="s-8-6" class="cls-5" d="M16.12,9.79l2.3,7.08-6.02-4.38h7.45l-6.02,4.38,2.3-7.08Z"/><g id="use1791-2"><path id="s-8-7" class="cls-5" d="M16.12,23.49l2.3,7.08-6.02-4.38h7.45l-6.02,4.38,2.3-7.08Z"/></g><g id="use1793-2"><path id="s-8-8" class="cls-5" d="M16.12,37.19l2.3,7.08-6.02-4.38h7.45l-6.02,4.38,2.3-7.08Z"/></g><g id="use1795-2"><path id="s-8-9" class="cls-5" d="M16.12,50.9l2.3,7.08-6.02-4.38h7.45l-6.02,4.38,2.3-7.08Z"/></g></g></g></g><g id="use1804"><g id="s9-2"><g id="s5-2"><g id="s4-5-3"><path id="s-8-10" class="cls-5" d="M24.18,2.94l2.3,7.08-6.02-4.38h7.45l-6.02,4.38,2.3-7.08Z"/><g id="use1791-3"><path id="s-8-11" class="cls-5" d="M24.18,16.64l2.3,7.08-6.02-4.38h7.45l-6.02,4.38,2.3-7.08Z"/></g><g id="use1793-3"><path id="s-8-12" class="cls-5" d="M24.18,30.34l2.3,7.08-6.02-4.38h7.45l-6.02,4.38,2.3-7.08Z"/></g><g id="use1795-3"><path id="s-8-13" class="cls-5" d="M24.18,44.05l2.3,7.08-6.02-4.38h7.45l-6.02,4.38,2.3-7.08Z"/></g></g><g id="use1798-2"><path id="s-8-14" class="cls-5" d="M24.18,57.75l2.3,7.08-6.02-4.38h7.45l-6.02,4.38,2.3-7.08Z"/></g></g><g id="use1801-2"><g id="s4-5-4"><path id="s-8-15" class="cls-5" d="M32.23,9.79l2.3,7.08-6.02-4.38h7.45l-6.02,4.38,2.3-7.08Z"/><g id="use1791-4"><path id="s-8-16" class="cls-5" d="M32.23,23.49l2.3,7.08-6.02-4.38h7.45l-6.02,4.38,2.3-7.08Z"/></g><g id="use1793-4"><path id="s-8-17" class="cls-5" d="M32.23,37.19l2.3,7.08-6.02-4.38h7.45l-6.02,4.38,2.3-7.08Z"/></g><g id="use1795-4"><path id="s-8-18" class="cls-5" d="M32.23,50.9l2.3,7.08-6.02-4.38h7.45l-6.02,4.38,2.3-7.08Z"/></g></g></g></g></g></g><g id="use1807"><g id="s18-2"><g id="s9-3"><g id="s5-3"><g id="s4-5-5"><path id="s-8-19" class="cls-5" d="M40.29,2.94l2.3,7.08-6.02-4.38h7.45l-6.02,4.38,2.3-7.08Z"/><g id="use1791-5"><path id="s-8-20" class="cls-5" d="M40.29,16.64l2.3,7.08-6.02-4.38h7.45l-6.02,4.38,2.3-7.08Z"/></g><g id="use1793-5"><path id="s-8-21" class="cls-5" d="M40.29,30.34l2.3,7.08-6.02-4.38h7.45l-6.02,4.38,2.3-7.08Z"/></g><g id="use1795-5"><path id="s-8-22" class="cls-5" d="M40.29,44.05l2.3,7.08-6.02-4.38h7.45l-6.02,4.38,2.3-7.08Z"/></g></g><g id="use1798-3"><path id="s-8-23" class="cls-5" d="M40.29,57.75l2.3,7.08-6.02-4.38h7.45l-6.02,4.38,2.3-7.08Z"/></g></g><g id="use1801-3"><g id="s4-5-6"><path id="s-8-24" class="cls-5" d="M48.35,9.79l2.3,7.08-6.02-4.38h7.45l-6.02,4.38,2.3-7.08Z"/><g id="use1791-6"><path id="s-8-25" class="cls-5" d="M48.35,23.49l2.3,7.08-6.02-4.38h7.45l-6.02,4.38,2.3-7.08Z"/></g><g id="use1793-6"><path id="s-8-26" class="cls-5" d="M48.35,37.19l2.3,7.08-6.02-4.38h7.45l-6.02,4.38,2.3-7.08Z"/></g><g id="use1795-6"><path id="s-8-27" class="cls-5" d="M48.35,50.9l2.3,7.08-6.02-4.38h7.45l-6.02,4.38,2.3-7.08Z"/></g></g></g></g><g id="use1804-2"><g id="s9-4"><g id="s5-4"><g id="s4-5-7"><path id="s-8-28" class="cls-5" d="M56.41,2.94l2.3,7.08-6.02-4.38h7.45l-6.02,4.38,2.3-7.08Z"/><g id="use1791-7"><path id="s-8-29" class="cls-5" d="M56.41,16.64l2.3,7.08-6.02-4.38h7.45l-6.02,4.38,2.3-7.08Z"/></g><g id="use1793-7"><path id="s-8-30" class="cls-5" d="M56.41,30.34l2.3,7.08-6.02-4.38h7.45l-6.02,4.38,2.3-7.08Z"/></g><g id="use1795-7"><path id="s-8-31" class="cls-5" d="M56.41,44.05l2.3,7.08-6.02-4.38h7.45l-6.02,4.38,2.3-7.08Z"/></g></g><g id="use1798-4"><path id="s-8-32" class="cls-5" d="M56.41,57.75l2.3,7.08-6.02-4.38h7.45l-6.02,4.38,2.3-7.08Z"/></g></g><g id="use1801-4"><g id="s4-5-8"><path id="s-8-33" class="cls-5" d="M64.47,9.79l2.3,7.08-6.02-4.38h7.45l-6.02,4.38,2.3-7.08Z"/><g id="use1791-8"><path id="s-8-34" class="cls-5" d="M64.47,23.49l2.3,7.08-6.02-4.38h7.45l-6.02,4.38,2.3-7.08Z"/></g><g id="use1793-8"><path id="s-8-35" class="cls-5" d="M64.47,37.19l2.3,7.08-6.02-4.38h7.45l-6.02,4.38,2.3-7.08Z"/></g><g id="use1795-8"><path id="s-8-36" class="cls-5" d="M64.47,50.9l2.3,7.08-6.02-4.38h7.45l-6.02,4.38,2.3-7.08Z"/></g></g></g></g></g></g></g><g id="use1809"><g id="s9-5"><g id="s5-5"><g id="s4-5-9"><path id="s-8-37" class="cls-5" d="M72.53,2.94l2.3,7.08-6.02-4.38h7.45l-6.02,4.38,2.3-7.08Z"/><g id="use1791-9"><path id="s-8-38" class="cls-5" d="M72.53,16.64l2.3,7.08-6.02-4.38h7.45l-6.02,4.38,2.3-7.08Z"/></g><g id="use1793-9"><path id="s-8-39" class="cls-5" d="M72.53,30.34l2.3,7.08-6.02-4.38h7.45l-6.02,4.38,2.3-7.08Z"/></g><g id="use1795-9"><path id="s-8-40" class="cls-5" d="M72.53,44.05l2.3,7.08-6.02-4.38h7.45l-6.02,4.38,2.3-7.08Z"/></g></g><g id="use1798-5"><path id="s-8-41" class="cls-5" d="M72.53,57.75l2.3,7.08-6.02-4.38h7.45l-6.02,4.38,2.3-7.08Z"/></g></g><g id="use1801-5"><g id="s4-5-10"><path id="s-8-42" class="cls-5" d="M80.59,9.79l2.3,7.08-6.02-4.38h7.45l-6.02,4.38,2.3-7.08Z"/><g id="use1791-10"><path id="s-8-43" class="cls-5" d="M80.59,23.49l2.3,7.08-6.02-4.38h7.45l-6.02,4.38,2.3-7.08Z"/></g><g id="use1793-10"><path id="s-8-44" class="cls-5" d="M80.59,37.19l2.3,7.08-6.02-4.38h7.45l-6.02,4.38,2.3-7.08Z"/></g><g id="use1795-10"><path id="s-8-45" class="cls-5" d="M80.59,50.9l2.3,7.08-6.02-4.38h7.45l-6.02,4.38,2.3-7.08Z"/></g></g></g></g></g><g id="use1811"><g id="s5-6"><g id="s4-5-11"><path id="s-8-46" class="cls-5" d="M88.65,2.94l2.3,7.08-6.02-4.38h7.45l-6.02,4.38,2.3-7.08Z"/><g id="use1791-11"><path id="s-8-47" class="cls-5" d="M88.65,16.64l2.3,7.08-6.02-4.38h7.45l-6.02,4.38,2.3-7.08Z"/></g><g id="use1793-11"><path id="s-8-48" class="cls-5" d="M88.65,30.34l2.3,7.08-6.02-4.38h7.45l-6.02,4.38,2.3-7.08Z"/></g><g id="use1795-11"><path id="s-8-49" class="cls-5" d="M88.65,44.05l2.3,7.08-6.02-4.38h7.45l-6.02,4.38,2.3-7.08Z"/></g></g><g id="use1798-6"><path id="s-8-50" class="cls-5" d="M88.65,57.75l2.3,7.08-6.02-4.38h7.45l-6.02,4.38,2.3-7.08Z"/></g></g></g></g></g></g></svg>