<?xml version="1.0" encoding="UTF-8"?><svg id="Capa_1" xmlns="http://www.w3.org/2000/svg" viewBox="0 0 151.99 128.58"><defs><style>.cls-1{fill:#fff;}</style></defs><g><path class="cls-1" d="M143.17,110.93c-4.87,0-8.83,3.95-8.83,8.83s3.95,8.83,8.83,8.83,8.82-3.95,8.82-8.83-3.95-8.83-8.82-8.83Zm0,16.61c-4.3,0-7.78-3.48-7.78-7.78s3.48-7.78,7.78-7.78,7.78,3.48,7.78,7.78-3.48,7.78-7.78,7.78Z"/><path class="cls-1" d="M140,124.23v-9.25h3.77c.79,0,1.37,.09,1.74,.26,.38,.17,.68,.46,.92,.86s.36,.87,.36,1.4c0,.7-.2,1.26-.61,1.7-.41,.43-1,.71-1.78,.83,.32,.17,.56,.34,.72,.51,.33,.35,.63,.75,.88,1.18l1.49,2.52h-1.42l-1.13-1.92c-.44-.75-.77-1.26-1-1.52-.22-.26-.44-.44-.65-.53-.21-.09-.5-.14-.88-.14h-1.3v4.11h-1.12Zm1.12-5.17h2.42c.53,0,.93-.06,1.2-.17,.27-.11,.49-.29,.65-.54s.24-.53,.24-.85c0-.47-.15-.83-.46-1.1s-.76-.4-1.37-.4h-2.69v3.06Z"/></g><path class="cls-1" d="M118.47,0H10.27C4.6,0,0,4.6,0,10.27V118.31c0,5.67,4.6,10.27,10.27,10.27H118.47c5.67,0,10.27-4.6,10.27-10.27V10.27c0-5.67-4.6-10.27-10.27-10.27ZM38.2,108.59c0,.53-.43,.96-.96,.96H20.05c-.53,0-.96-.43-.96-.96l.03-59.2c0-.53,.43-.96,.96-.96h17.19c.53,0,.96,.43,.96,.96l-.03,59.2Zm-1.77-71.89c-2.13,2.14-4.69,3.22-7.66,3.22s-5.66-1.09-7.82-3.28c-2.16-2.19-3.23-4.84-3.23-7.96s1.16-5.78,3.48-7.95c1.88-1.76,4.37-2.81,6.95-2.9,3.22-.12,5.97,.96,8.24,3.24,2.16,2.17,3.23,4.79,3.23,7.87s-1.07,5.63-3.2,7.78ZM110,109.47l-19.3,.08-.23-26.6c0-7.25,.23-10.29-1.5-14.3-.98-2.28-2.74-5.02-7.76-5.02-9.26,0-10.41,5.59-11.36,9.23-.5,1.9-.74,6.01-.74,12.33v24.37l-18.98-.08V48.47h18.29v6.47c3.84-2.91,6.14-4.71,9.11-6.19,2.98-1.48,6.15-1.83,9.54-1.83,8.38,0,12.87,2.37,17.04,6.54,3.75,3.75,5.89,8.86,5.89,15.86v40.15Z"/></svg>